# xmcd CD database file
#
# Track frame offsets:
#	182
#	13427
#	23507
#	38442
#	49625
#	55977
#	64825
#	74402
#	85855
#	97862
#	110942
#	123892
#	135455
#	155985
#	169302
#	182102
#	194717
#	212505
#	221605
#
# Disc length: 3465 seconds
#
# Revision: 0
# Processed by: cddbd v1.5.2PL0 Copyright (c) Steve Scherf et al.
# Submitted via: CDex 1.70beta2
#
DISCID=160d8713
DTITLE=Francois Rabbath - New Sound of Jazz and Bass-Ball
DYEAR=2003
DGENRE=Jazz
TTITLE0=desert
TTITLE1=crazy course
TTITLE2=walpurgis
TTITLE3=ode d'espagne
TTITLE4=impalas
TTITLE5=prelude a l'archet
TTITLE6=kobolds
TTITLE7=bitume
TTITLE8=hesitations
TTITLE9=exil
TTITLE10=western a la bruegel
TTITLE11=basses en fugue no. 1
TTITLE12=requiem pour goa
TTITLE13=classical impromptu
TTITLE14=manteau de pluie
TTITLE15=basses en fugue no. 2 "les gorgones"
TTITLE16=variation sur trois cordes
TTITLE17=supremum vale
TTITLE18=rhapsodie pour contrabasse
EXTD=YEAR: 2003
EXTT0=
EXTT1=
EXTT2=
EXTT3=
EXTT4=
EXTT5=
EXTT6=
EXTT7=
EXTT8=
EXTT9=
EXTT10=
EXTT11=
EXTT12=
EXTT13=
EXTT14=
EXTT15=
EXTT16=
EXTT17=
EXTT18=
PLAYORDER=
